<svg width="685" height="725" viewBox="0 0 685 725" fill="none" xmlns="http://www.w3.org/2000/svg">
<path d="M167.36 303.183L350.484 323.079C359.715 324.082 362.714 336.029 355.051 341.273L260.816 405.755L250.395 412.667C238.208 420.751 246.662 439.68 260.816 436L317.13 427.412C327.133 425.887 337.291 428.963 344.767 435.782C357.151 447.078 359.285 465.785 349.764 479.58L323.847 517.129C317.38 526.498 329.095 537.666 338.144 530.758L564.707 357.821C607.901 324.85 588.521 256.03 534.469 250.445L308.786 227.124C298.762 226.088 296.391 212.553 305.466 208.172L554.82 87.7987C575.79 77.6758 583.641 51.8004 571.832 31.732C561.29 13.8182 538.746 7.02273 520.06 16.127L172.444 185.5L145.813 200.866C99.7428 227.449 114.482 297.438 167.36 303.183Z" fill="white" stroke="black"/>
<path d="M155.942 508.172L144.169 422.349C142.917 413.227 153.615 407.405 160.596 413.407L225.838 469.507C228.108 471.46 231.135 472.292 234.084 471.774L308.536 458.721C317.526 457.145 323.755 467.448 318.182 474.677L269.688 537.578C268.031 539.727 267.319 542.457 267.714 545.141L280.306 630.613C281.647 639.716 271.021 645.646 263.978 639.725L197.399 583.75C195.376 582.049 192.762 581.218 190.129 581.439L112.596 587.935C103.589 588.69 98.282 578.056 104.301 571.312L153.496 516.189C155.446 514.004 156.34 511.074 155.942 508.172Z" fill="white"/>
</svg>
